<?xml version="1.0" standalone="no"?>
<!DOCTYPE svg PUBLIC "-//W3C//DTD SVG 20010904//EN"
 "http://www.w3.org/TR/2001/REC-SVG-20010904/DTD/svg10.dtd">
<svg version="1.0" xmlns="http://www.w3.org/2000/svg"
 width="512.000000pt" height="512.000000pt" viewBox="0 0 512.000000 512.000000"
 preserveAspectRatio="xMidYMid meet">

<g transform="translate(0.000000,512.000000) scale(0.100000,-0.100000)"
fill="#000000" stroke="none">
<path d="M3844 4226 c-36 -16 -59 -64 -49 -103 4 -19 129 -151 368 -390 l361
-363 -1962 0 c-2096 0 -2008 2 -2026 -45 -8 -21 -8 -69 0 -90 18 -47 -70 -45
2024 -45 1078 0 1960 -3 1960 -7 0 -4 -164 -172 -365 -373 -254 -254 -365
-372 -365 -387 0 -61 54 -110 109 -98 18 4 172 151 481 460 449 449 455 455
455 495 0 40 -6 46 -445 486 -245 245 -457 452 -472 460 -32 17 -35 17 -74 0z"/>
<path d="M1205 2789 c-11 -6 -221 -212 -467 -457 -305 -304 -449 -455 -453
-473 -4 -16 0 -39 9 -56 20 -39 896 -909 923 -917 58 -18 124 50 108 111 -4
19 -129 151 -368 391 l-361 362 1962 0 c1703 0 1967 2 1991 15 32 16 41 33 41
75 0 42 -9 59 -41 75 -24 13 -288 15 -1996 15 l-1968 0 373 373 c259 259 372
379 372 394 0 39 -19 72 -49 88 -35 18 -49 18 -76 4z"/>
</g>
</svg>
